<svg id="Capa_1" enable-background="new 0 0 512 512" height="512" viewBox="0 0 512 512" width="512" xmlns="http://www.w3.org/2000/svg"><g><path d="m162.874 116.846s-31.734-65.446-114.969-89.93c0 0-94.67 143.647 23.817 214.64" fill="#dd6938"/><path d="m71.721 241.56 6.799-9.292 34.223-46.822-1.092-4.461c0-30.256-15.906-68.713-31.822-99.639-15.958-30.998-31.926-54.424-31.926-54.424s-94.663 143.648 23.818 214.638z" fill="#665e66"/><path d="m62.233 210.757c5.687 11.126 11.126 17.997 16.287 21.51l34.223-46.822-1.092-4.461c0-30.256-15.906-68.713-31.822-99.639-20.758 22.49-48.985 68.024-17.596 129.412z" fill="#454045"/><path d="m71.187 146.81c-2.196 0-4.377-.931-5.906-2.74l-17.908-21.198c-2.754-3.26-2.343-8.135.916-10.888 3.261-2.755 8.134-2.344 10.888.915l17.908 21.198c2.754 3.26 2.343 8.135-.916 10.888-1.451 1.227-3.221 1.825-4.982 1.825z" fill="#f9f6f9"/><path d="m56.569 163.51c-.606 0-1.22-.072-1.835-.221l-14.326-3.49c-4.146-1.01-6.688-5.19-5.678-9.336 1.009-4.146 5.189-6.687 9.336-5.678l14.326 3.49c4.146 1.01 6.688 5.19 5.678 9.336-.86 3.53-4.021 5.899-7.501 5.899z" fill="#f9f6f9"/><path d="m349.126 116.846s31.734-65.446 114.969-89.93c0 0 94.67 143.647-23.817 214.64" fill="#dd6938"/><path d="m440.279 241.56-6.799-9.292-34.223-46.822 1.092-4.461c0-30.256 15.906-68.713 31.822-99.639 15.958-30.998 31.925-54.425 31.925-54.425s94.664 143.649-23.817 214.639z" fill="#665e66"/><path d="m449.767 210.757c-5.687 11.126-11.126 17.997-16.287 21.51l-34.223-46.822 1.092-4.461c0-30.256 15.906-68.713 31.822-99.639 20.758 22.49 48.985 68.024 17.596 129.412z" fill="#454045"/><path d="m440.813 146.81c-1.762 0-3.531-.599-4.982-1.824-3.26-2.754-3.67-7.629-.917-10.888l17.908-21.198c2.754-3.26 7.629-3.67 10.888-.915 3.26 2.754 3.67 7.628.917 10.888l-17.908 21.198c-1.528 1.808-3.71 2.739-5.906 2.739z" fill="#f9f6f9"/><ellipse cx="256" cy="292.502" fill="#e4936b" rx="256" ry="192.582"/><path d="m256 485.084c-121.51 0-224.003-81.364-256-192.582 31.997-111.218 134.49-192.582 256-192.582-117.739 0-256 297.589 0 385.164z" fill="#dd6938"/><path d="m447.366 315.218c-23.92 67.889-100.535 117.544-191.366 117.544-43.299 0-83.372-11.281-116.04-30.462-35.861-21.026-62.81-51.561-75.327-87.081 10.116-28.701 29.659-54.157 55.712-73.967 17.75-13.495 38.518-24.384 61.399-31.894 24.673-8.108 50.088 10.127 50.088 36.098v103.245h48.336v-103.247c0-25.971 25.415-44.205 50.088-36.098 56.453 18.544 100.102 57.598 117.11 105.862z" fill="#665e66"/><path d="m139.96 402.299c-35.861-21.026-62.81-51.561-75.327-87.081 10.116-28.701 29.659-54.157 55.712-73.967-15.081 52.807-12.928 111.867 19.615 161.048z" fill="#454045"/><ellipse cx="256" cy="375.531" fill="#f9f6f9" rx="89.595" ry="57.235"/><path d="m256 432.758c-49.48 0-89.595-25.621-89.595-57.227 0-31.616 40.115-57.237 89.595-57.237-27.073 0-49.026 25.62-49.026 57.237-.001 31.607 21.953 57.227 49.026 57.227z" fill="#dfdde2"/><ellipse cx="256" cy="344.329" fill="#454045" rx="40.752" ry="26.033"/><g fill="#282528"><path d="m181.281 236.256c-12.908 0-23.409 15.694-23.409 34.985s10.501 34.985 23.409 34.985c12.907 0 23.408-15.694 23.408-34.985.001-19.291-10.501-34.985-23.408-34.985z"/><path d="m330.719 236.256c-12.908 0-23.409 15.694-23.409 34.985s10.501 34.985 23.409 34.985c12.907 0 23.408-15.694 23.408-34.985s-10.501-34.985-23.408-34.985z"/></g><path d="m455.431 163.51c-3.481 0-6.641-2.368-7.501-5.899-1.01-4.146 1.532-8.326 5.678-9.336l14.326-3.49c4.154-1.01 8.326 1.533 9.336 5.678 1.01 4.146-1.532 8.326-5.678 9.336l-14.326 3.49c-.615.149-1.231.221-1.835.221z" fill="#f9f6f9"/></g></svg>