<?xml version="1.0" encoding="iso-8859-1"?>
<!-- Generator: Adobe Illustrator 19.0.0, SVG Export Plug-In . SVG Version: 6.00 Build 0)  -->
<svg version="1.1" id="Capa_1" xmlns="http://www.w3.org/2000/svg" xmlns:xlink="http://www.w3.org/1999/xlink" x="0px" y="0px"
	 viewBox="0 0 512 512" style="enable-background:new 0 0 512 512;" xml:space="preserve">
<path style="fill:#464D59;" d="M59.907,338.506C31.894,328.31-7.231,292.919,1.154,269.881s61.106-25,89.118-14.804
	c28.013,10.196,38.004,34.983,29.619,58.021C111.506,336.136,87.919,348.701,59.907,338.506z"/>
<path style="opacity:0.1;enable-background:new    ;" d="M59.907,338.506C31.894,328.31-7.231,292.919,1.154,269.881
	s61.106-25,89.118-14.804c28.013,10.196,38.004,34.983,29.619,58.021C111.506,336.136,87.919,348.701,59.907,338.506z"/>
<path style="opacity:0.1;enable-background:new    ;" d="M90.272,255.077c-10.303-3.75-23.947-5.852-37.498-5.87
	c-4.884,30.775-5.174,60.292-0.933,85.826c2.753,1.356,5.458,2.524,8.065,3.473c28.013,10.196,51.6-2.37,59.985-25.408
	C128.277,290.059,118.285,265.272,90.272,255.077z"/>
<path style="fill:#464D59;" d="M452.093,338.506c28.013-10.196,67.138-45.586,58.753-68.625c-8.385-23.038-61.106-25-89.118-14.804
	c-28.013,10.196-38.004,34.983-29.619,58.021C400.494,336.136,424.081,348.701,452.093,338.506z"/>
<path style="opacity:0.1;enable-background:new    ;" d="M452.093,338.506c28.013-10.196,67.138-45.586,58.753-68.625
	c-8.385-23.038-61.106-25-89.118-14.804c-28.013,10.196-38.004,34.983-29.619,58.021
	C400.494,336.136,424.081,348.701,452.093,338.506z"/>
<path style="opacity:0.1;enable-background:new    ;" d="M421.728,255.077c10.302-3.75,23.947-5.852,37.498-5.87
	c4.884,30.775,5.174,60.292,0.933,85.826c-2.753,1.356-5.457,2.524-8.065,3.473c-28.013,10.196-51.6-2.37-59.985-25.408
	C383.723,290.059,393.715,265.272,421.728,255.077z"/>
<path style="fill:#464D59;" d="M256,442.388c89.354,0,161.571-18.021,183.497-90.41C468.263,257.006,411.771,52.838,256,52.838
	S43.737,257.006,72.503,351.978C94.429,424.367,166.646,442.388,256,442.388z"/>
<path style="fill:#FFFFFF;" d="M366.085,302.496c-5.456-11.126-3.153-24.421,5.556-33.237c14.933-15.116,23.98-36.055,23.412-59.113
	c-1.056-42.879-35.957-77.928-78.831-79.157c-19.216-0.551-36.976,5.579-51.144,16.232c-5.35,4.023-12.805,4.023-18.156,0
	c-14.168-10.653-31.928-16.783-51.144-16.232c-42.874,1.229-77.775,36.278-78.831,79.157c-0.568,23.057,8.479,43.996,23.412,59.112
	c8.709,8.816,11.012,22.111,5.556,33.237c-16.152,32.936-26.381,71.655-30.958,108.745c34.432,23.867,84.276,31.147,141.043,31.147
	s106.611-7.28,141.043-31.147C392.466,374.151,382.237,335.433,366.085,302.496z"/>
<path style="fill:#F7D88B;" d="M256,263.933c12.747,0,26.411-11.547,29.151-31.197c3.32-23.812-13.051-28.886-29.151-28.886
	s-32.471,5.074-29.151,28.886C229.589,252.386,243.253,263.933,256,263.933z"/>
<path style="fill:#F4CF7A;" d="M262.012,263.096c-20.266-7.588-26.558-44.735-17.771-58.092
	c-11.268,2.532-19.886,9.845-17.392,27.732c2.74,19.65,16.404,31.197,29.151,31.197
	C257.997,263.933,260.016,263.649,262.012,263.096z"/>
<g>
	<ellipse style="fill:#F27281;" cx="173.23" cy="217.87" rx="27.332" ry="21.766"/>
	<ellipse style="fill:#F27281;" cx="338.77" cy="217.87" rx="27.332" ry="21.766"/>
</g>
<g>
	<path style="fill:#464D59;" d="M202.168,201.689c-4.142,0-7.5-3.358-7.5-7.5c0-3.038-2.472-5.509-5.51-5.509
		s-5.509,2.472-5.509,5.509c0,4.142-3.358,7.5-7.5,7.5s-7.5-3.358-7.5-7.5c0-11.309,9.2-20.509,20.509-20.509
		s20.51,9.2,20.51,20.509C209.668,198.331,206.31,201.689,202.168,201.689z"/>
	<path style="fill:#464D59;" d="M335.852,201.689c-4.143,0-7.5-3.358-7.5-7.5c0-3.038-2.472-5.509-5.51-5.509
		c-3.037,0-5.509,2.472-5.509,5.509c0,4.142-3.357,7.5-7.5,7.5s-7.5-3.358-7.5-7.5c0-11.309,9.2-20.509,20.509-20.509
		c11.31,0,20.51,9.2,20.51,20.509C343.352,198.331,339.994,201.689,335.852,201.689z"/>
</g>
<path style="opacity:0.1;enable-background:new    ;" d="M187.102,68.031C83.946,117.08,48.471,272.635,72.503,351.978
	c21.926,72.389,94.143,90.41,183.497,90.41c35.623,0,68.516-2.87,96.591-10.902C139.29,439.991,136.966,165.79,187.102,68.031z"/>
<g>
	<path style="fill:#F7D88B;" d="M218.386,459.162h-32.794c-9.932,0-17.984-8.052-17.984-17.984l0,0
		c0-9.932,8.052-17.984,17.984-17.984h32.794c9.932,0,17.984,8.052,17.984,17.984l0,0
		C236.369,451.11,228.318,459.162,218.386,459.162z"/>
	<path style="fill:#F7D88B;" d="M293.614,459.162h32.794c9.932,0,17.984-8.052,17.984-17.984l0,0
		c0-9.932-8.052-17.984-17.984-17.984h-32.794c-9.932,0-17.984,8.052-17.984,17.984l0,0
		C275.631,451.11,283.682,459.162,293.614,459.162z"/>
</g>
<g>
</g>
<g>
</g>
<g>
</g>
<g>
</g>
<g>
</g>
<g>
</g>
<g>
</g>
<g>
</g>
<g>
</g>
<g>
</g>
<g>
</g>
<g>
</g>
<g>
</g>
<g>
</g>
<g>
</g>
</svg>
