<svg id="Capa_1" enable-background="new 0 0 512 512" height="512" viewBox="0 0 512 512" width="512" xmlns="http://www.w3.org/2000/svg"><g><g fill="#f1b986"><path d="m92.911 421.127v55.106h-16.813c-9.285 0-16.812 7.527-16.812 16.812s7.527 16.813 16.812 16.813h16.812 21.481 7.994c13.916 0 25.197-11.281 25.197-25.197v-63.533h-54.671z"/><path d="m419.089 421.127v55.106h16.812c9.285 0 16.812 7.527 16.812 16.812s-7.527 16.813-16.812 16.813h-16.812-21.481-7.994c-13.916 0-25.197-11.281-25.197-25.197v-63.533h54.672z"/></g><path d="m512 253.847c0 141.388-114.612 256.01-256 256.01-24.746 0-48.678-3.513-71.312-10.065-106.69-30.886-184.688-129.303-184.688-245.945 0-53.468 16.391-103.105 44.434-144.169v85.322s40.838-134.289 110.038-176.219l-8.324 67.758c.587-1.968 19.729-65.09 88.434-84.396l21.418 73.949 21.418-73.949c68.706 19.306 87.847 82.428 88.434 84.396l-8.324-67.758c69.2 41.93 110.038 176.219 110.038 176.219v-85.323c28.043 41.065 44.434 90.701 44.434 144.17z" fill="#c17d4f"/><path d="m144.715 288.483c13.187 52.5 28.887 143.057 39.973 211.309-106.69-30.886-184.688-129.303-184.688-245.945 0-53.468 16.391-103.105 44.434-144.169v85.322s40.838-134.289 110.038-176.219l-8.324 67.758c.587-1.968 19.729-65.09 88.434-84.396-44.124 44.125-73.465 131.683-66.707 173.294 0 0-22.768-18.781-14.742-53.664-.701 1.679-31.299 75.566-8.418 166.71z" fill="#985e33"/><path d="m411.66 287.513v109.364c0 62.398-50.592 112.98-112.98 112.98h-85.36c-62.388 0-112.98-50.582-112.98-112.98v-109.364s25.837-.535 36.932 35.727l5.007-23.344 2.421-11.321.021-.093 15.144-70.65s55.012 24.137 53.858 70.351c1.504-14.021 8.623-51.798 42.279-85.453 33.656 33.656 40.775 71.433 42.279 85.453-1.154-46.214 53.858-70.351 53.858-70.351l22.592 105.408c13.369-35.479 36.929-35.727 36.929-35.727z" fill="#f1d0a5"/><path d="m245.43 509.857h-32.112c-62.39 0-112.974-50.584-112.974-112.984v-109.359s25.838-.536 36.923 35.728l5.007-23.345c-7.727 41.044-24.437 180.237 97.129 208.497 2.071.485 4.08.969 6.027 1.463z" fill="#f1b986"/><g fill="#282528"><path d="m167.874 345.688c-12.908 0-23.41 15.695-23.41 34.986s10.502 34.986 23.41 34.986 23.409-15.695 23.409-34.986-10.502-34.986-23.409-34.986z"/><path d="m344.126 345.688c-12.908 0-23.41 15.695-23.41 34.986s10.502 34.986 23.41 34.986 23.409-15.695 23.409-34.986-10.501-34.986-23.409-34.986z"/></g><path d="m263.726 430.523v79.334h-15.453v-79.334c0-4.265 3.461-7.726 7.726-7.726 4.266 0 7.727 3.461 7.727 7.726z" fill="#f1b986"/><path d="m267.445 405.016h-22.89c-14.088 0-25.508 11.421-25.508 25.508 0 14.088 11.421 25.508 25.508 25.508h22.89c14.088 0 25.508-11.421 25.508-25.508 0-14.087-11.42-25.508-25.508-25.508z" fill="#e4936b"/><path d="m252.28 448.563c4.306 4.296 10.127 7.067 16.607 7.428-.474.031-.958.041-1.442.041h-22.891c-7.036 0-13.423-2.854-18.038-7.469s-7.469-10.992-7.469-18.038c0-14.082 11.425-25.507 25.507-25.507h22.891c.484 0 .968.01 1.442.041-13.413.742-24.075 11.868-24.075 25.466 0 7.046 2.853 13.423 7.468 18.038z" fill="#dd6938"/></g></svg>