<svg id="Capa_1" enable-background="new 0 0 512 512" height="512" viewBox="0 0 512 512" width="512" xmlns="http://www.w3.org/2000/svg"><g><path d="m512 289.221c0-144.529-114.615-261.692-256-261.692s-256 117.163-256 261.692 114.615 195.251 256 195.251 256-50.723 256-195.251z" fill="#c17d4f"/><path d="m254.233 484.464c-140.571-.412-254.233-51.303-254.233-195.243 0-144.528 114.61-261.692 255.995-261.692-75.071 0-135.925 117.165-135.925 261.692 0 143.404 59.906 194.461 134.163 195.243z" fill="#985e33"/><path d="m314.541 246.299c-25.642 25.631-11.837 81.025 30.834 123.696 17.596 17.596 37.355 30.288 56.3 37.314-36.582 29.474-88.319 47.853-145.681 47.853-36.902 0-71.475-7.603-101.176-20.882-16.473-7.355-31.442-16.463-44.494-26.97 8.221-3.049 16.597-7.17 24.879-12.29 10.807-6.676 21.459-15.062 31.421-25.024 42.671-42.671 56.476-98.065 30.834-123.696-16.524-16.524-45.401-16.669-75.277-3.246-16.473 7.387-33.255 18.915-48.419 34.079-6.913 6.913-13.063 14.165-18.42 21.562 1.247-47.719 31.019-90.091 76.833-117.556 34.1-20.46 77.1-32.658 123.82-32.658 109.48 0 198.499 66.973 200.663 150.234-5.337-7.418-11.497-14.66-18.42-21.583-42.671-42.671-98.055-56.475-123.697-30.833z" fill="#f1d0a5"/><path d="m122.182 243.053c-16.473 7.387-33.255 18.915-48.419 34.079-6.913 6.913-13.063 14.165-18.42 21.562 1.247-47.719 31.019-90.091 76.833-117.556-4.606 19.481-7.995 40.24-9.994 61.915z" fill="#f1b986"/><path d="m154.819 434.279c-16.473-7.355-31.442-16.463-44.494-26.97 8.221-3.049 16.597-7.17 24.879-12.29 5.326 15.236 11.94 28.258 19.615 39.26z" fill="#f1b986"/><g fill="#282528"><path d="m146.831 263.072c-14.008 0-25.404 17.032-25.404 37.967s11.396 37.967 25.404 37.967c14.007 0 25.403-17.032 25.403-37.967s-11.396-37.967-25.403-37.967z"/><path d="m365.159 263.072c-14.008 0-25.404 17.032-25.404 37.967s11.396 37.967 25.404 37.967c14.007 0 25.403-17.032 25.403-37.967s-11.396-37.967-25.403-37.967z"/></g><path d="m290.353 337.3c0-12.664-15.382-22.93-34.358-22.93s-34.358 10.266-34.358 22.93 15.382 32.987 34.358 32.987 34.358-20.323 34.358-32.987z" fill="#c17d4f"/><path d="m261.218 369.772c-1.7.34-3.451.515-5.223.515-18.966 0-34.357-20.326-34.357-32.987 0-12.671 15.391-22.932 34.357-22.932.628 0 1.247.01 1.864.031-12.29 4.121-20.717 12.62-20.717 22.428 0 10.672 9.993 26.331 24.076 32.945z" fill="#985e33"/><path d="m304.532 411.553h-97.073c-4.268 0-7.727-3.459-7.727-7.727s3.459-7.727 7.727-7.727h97.073c4.268 0 7.727 3.459 7.727 7.727s-3.459 7.727-7.727 7.727z" fill="#f1b986"/></g></svg>